<svg width="104" height="104" viewBox="0 0 104 104" fill="none" xmlns="http://www.w3.org/2000/svg">
<circle cx="51.9999" cy="51.767" r="51.767" fill="white"/>
<path d="M63.6127 66.8159C60.8434 66.8159 58.476 65.8332 56.5107 63.8679C54.6347 61.8132 53.6967 59.3119 53.6967 56.3639C53.6967 50.8252 55.3047 45.8672 58.5207 41.4899C61.826 37.0232 65.6227 33.6732 69.9107 31.4399L70.4467 31.3059C71.1614 31.3059 71.5187 31.6632 71.5187 32.3779C71.5187 32.6459 71.3847 32.9139 71.1167 33.1819C68.9727 35.0579 67.32 36.9786 66.1587 38.9439C64.9974 40.8199 64.4167 42.5172 64.4167 44.0359C64.4167 45.6439 65.2654 46.9839 66.9627 48.0559C69.0174 49.2172 70.5807 50.4232 71.6527 51.6739C72.814 52.9246 73.3947 54.6666 73.3947 56.8999C73.3947 59.6692 72.412 62.0366 70.4467 64.0019C68.5707 65.8779 66.2927 66.8159 63.6127 66.8159ZM35.6067 66.8159C32.9267 66.8159 30.604 65.8332 28.6387 63.8679C26.7627 61.8132 25.8247 59.3119 25.8247 56.3639C25.8247 50.8252 27.4774 45.8672 30.7827 41.4899C34.088 37.0232 37.7954 33.7179 41.9047 31.5739C42.0834 31.4846 42.3067 31.4399 42.5747 31.4399C43.2 31.4399 43.5127 31.7972 43.5127 32.5119C43.5127 32.7799 43.4234 33.0032 43.2447 33.1819C41.1007 35.1472 39.448 37.1126 38.2867 39.0779C37.1254 40.9539 36.5447 42.6066 36.5447 44.0359C36.5447 46.0906 37.3934 47.4306 39.0907 48.0559C41.056 49.0386 42.5747 50.1999 43.6467 51.5399C44.808 52.8799 45.3887 54.6666 45.3887 56.8999C45.3887 59.6692 44.4507 62.0366 42.5747 64.0019C40.6987 65.8779 38.376 66.8159 35.6067 66.8159Z" fill="#2E4049"/>
</svg>
