<svg width="60" height="60" viewBox="0 0 60 60" fill="none" xmlns="http://www.w3.org/2000/svg">
<circle cx="30.0988" cy="30.4233" r="29.5" fill="#EE4E4E"/>
<path d="M41.277 38.8154L36.5164 34.0548C37.6625 32.529 38.2812 30.6718 38.2791 28.7635C38.2791 23.8891 34.3134 19.9233 29.439 19.9233C24.5645 19.9233 20.5988 23.8891 20.5988 28.7635C20.5988 33.6379 24.5645 37.6037 29.439 37.6037C31.3473 37.6057 33.2045 36.987 34.7303 35.8409L39.4909 40.6015C39.7319 40.8169 40.0462 40.9319 40.3693 40.9228C40.6924 40.9138 40.9998 40.7814 41.2283 40.5529C41.4569 40.3243 41.5893 40.0169 41.5983 39.6938C41.6074 39.3707 41.4924 39.0564 41.277 38.8154ZM23.1246 28.7635C23.1246 27.5146 23.4949 26.2938 24.1887 25.2554C24.8826 24.217 25.8688 23.4077 27.0226 22.9298C28.1764 22.4518 29.446 22.3268 30.6709 22.5704C31.8957 22.8141 33.0208 23.4155 33.9039 24.2985C34.787 25.1816 35.3884 26.3067 35.632 27.5316C35.8757 28.7565 35.7506 30.0261 35.2727 31.1799C34.7948 32.3337 33.9855 33.3199 32.9471 34.0137C31.9087 34.7076 30.6878 35.0779 29.439 35.0779C27.7649 35.0759 26.16 34.41 24.9762 33.2262C23.7925 32.0425 23.1266 30.4376 23.1246 28.7635Z" fill="white"/>
<path d="M32.5988 27.9733C32.7888 27.9733 32.9438 28.0383 33.0638 28.1683C33.1938 28.2883 33.2588 28.4433 33.2588 28.6333C33.2588 28.8233 33.1938 28.9833 33.0638 29.1133C32.9438 29.2333 32.7888 29.2933 32.5988 29.2933H30.2588V31.6183C30.2588 31.8083 30.1938 31.9683 30.0638 32.0983C29.9438 32.2283 29.7888 32.2933 29.5988 32.2933C29.4088 32.2933 29.2488 32.2283 29.1188 32.0983C28.9988 31.9683 28.9388 31.8083 28.9388 31.6183V29.2933H26.5988C26.4088 29.2933 26.2488 29.2333 26.1188 29.1133C25.9988 28.9833 25.9388 28.8233 25.9388 28.6333C25.9388 28.4433 25.9988 28.2883 26.1188 28.1683C26.2488 28.0383 26.4088 27.9733 26.5988 27.9733H28.9388V25.6333C28.9388 25.4433 28.9988 25.2883 29.1188 25.1683C29.2488 25.0383 29.4088 24.9733 29.5988 24.9733C29.7888 24.9733 29.9438 25.0383 30.0638 25.1683C30.1938 25.2883 30.2588 25.4433 30.2588 25.6333V27.9733H32.5988Z" fill="white"/>
</svg>
